<svg xmlns="http://www.w3.org/2000/svg" version="1.1" xmlns:xlink="http://www.w3.org/1999/xlink" width="512" height="512" x="0" y="0" viewBox="0 0 682.667 682.667" style="enable-background:new 0 0 512 512" xml:space="preserve" class=""><g><defs><clipPath id="a" clipPathUnits="userSpaceOnUse"><path d="M0 512h512V0H0Z" fill="#d1d5db " opacity="1" data-original="#d1d5db "></path></clipPath></defs><g clip-path="url(#a)" transform="matrix(1.33333 0 0 -1.33333 0 682.667)"><path d="M0 0h-44.107v9.152c0 11.79-9.558 21.348-21.347 21.348h-47.306c-11.79 0-21.347-9.558-21.347-21.348V0h-44.107a9 9 0 0 1-9-9v-59.505a9 9 0 0 1 9-9H0a9 9 0 0 1 9 9V-9a9 9 0 0 1-9 9Z" style="stroke-width:15;stroke-linecap:round;stroke-linejoin:round;stroke-miterlimit:10;stroke-dasharray:none;stroke-opacity:1" transform="translate(307.006 474)" fill="none" stroke="#d1d5db " stroke-width="15" stroke-linecap="round" stroke-linejoin="round" stroke-miterlimit="10" stroke-dasharray="none" stroke-opacity="" data-original="#d1d5db "></path><path d="M0 0c42.085 0 76.203-34.117 76.203-76.203 0-42.085-34.118-76.202-76.203-76.202s-76.203 34.117-76.203 76.202C-76.203-34.117-42.085 0 0 0Z" style="stroke-width:15;stroke-linecap:round;stroke-linejoin:round;stroke-miterlimit:10;stroke-dasharray:45, 35, 800, 0;stroke-dashoffset:0;stroke-opacity:1" transform="translate(400.493 296.21)" fill="none" stroke="#d1d5db " stroke-width="15" stroke-linecap="round" stroke-linejoin="round" stroke-miterlimit="10" stroke-dasharray="45, 35, 800, 0" stroke-dashoffset="0" stroke-opacity="" data-original="#d1d5db "></path><path d="M0 0v-83.5" style="stroke-width:15;stroke-linecap:round;stroke-linejoin:round;stroke-miterlimit:10;stroke-dasharray:none;stroke-opacity:1" transform="translate(400.493 261.757)" fill="none" stroke="#d1d5db " stroke-width="15" stroke-linecap="round" stroke-linejoin="round" stroke-miterlimit="10" stroke-dasharray="none" stroke-opacity="" data-original="#d1d5db "></path><path d="M0 0h-83.5" style="stroke-width:15;stroke-linecap:round;stroke-linejoin:round;stroke-miterlimit:10;stroke-dasharray:none;stroke-opacity:1" transform="translate(442.243 220.007)" fill="none" stroke="#d1d5db " stroke-width="15" stroke-linecap="round" stroke-linejoin="round" stroke-miterlimit="10" stroke-dasharray="none" stroke-opacity="" data-original="#d1d5db "></path><path d="M0 0h206" style="stroke-width:15;stroke-linecap:round;stroke-linejoin:round;stroke-miterlimit:10;stroke-dasharray:none;stroke-opacity:1" transform="translate(114.899 347.172)" fill="none" stroke="#d1d5db " stroke-width="15" stroke-linecap="round" stroke-linejoin="round" stroke-miterlimit="10" stroke-dasharray="none" stroke-opacity="" data-original="#d1d5db "></path><path d="M0 0h206" style="stroke-width:15;stroke-linecap:round;stroke-linejoin:round;stroke-miterlimit:10;stroke-dasharray:none;stroke-opacity:1" transform="translate(114.899 283.422)" fill="none" stroke="#d1d5db " stroke-width="15" stroke-linecap="round" stroke-linejoin="round" stroke-miterlimit="10" stroke-dasharray="none" stroke-opacity="" data-original="#d1d5db "></path><path d="M0 0h206" style="stroke-width:15;stroke-linecap:round;stroke-linejoin:round;stroke-miterlimit:10;stroke-dasharray:none;stroke-opacity:1" transform="translate(114.899 219.672)" fill="none" stroke="#d1d5db " stroke-width="15" stroke-linecap="round" stroke-linejoin="round" stroke-miterlimit="10" stroke-dasharray="none" stroke-opacity="" data-original="#d1d5db "></path><path d="M0 0h206" style="stroke-width:15;stroke-linecap:round;stroke-linejoin:round;stroke-miterlimit:10;stroke-dasharray:none;stroke-opacity:1" transform="translate(114.899 155.922)" fill="none" stroke="#d1d5db " stroke-width="15" stroke-linecap="round" stroke-linejoin="round" stroke-miterlimit="10" stroke-dasharray="none" stroke-opacity="" data-original="#d1d5db "></path><path d="M0 0h206" style="stroke-width:15;stroke-linecap:round;stroke-linejoin:round;stroke-miterlimit:10;stroke-dasharray:none;stroke-opacity:1" transform="translate(114.899 92.172)" fill="none" stroke="#d1d5db " stroke-width="15" stroke-linecap="round" stroke-linejoin="round" stroke-miterlimit="10" stroke-dasharray="none" stroke-opacity="" data-original="#d1d5db "></path><path d="M0 0c0 42.085 34.117 76.202 76.203 76.202v145.036c0 11.046-8.954 20-20 20H-8.284v-55.751a9 9 0 0 0-9-9h-178.215c-4.97 0-9 4.031-9 9v55.751h-64.486c-11.046 0-20-8.954-20-20v-413.746c0-11.046 8.954-20 20-20H56.203c11.046 0 20 8.954 20 20v116.305C34.117-76.203 0-42.086 0 0Z" style="stroke-width:15;stroke-linecap:round;stroke-linejoin:round;stroke-miterlimit:10;stroke-dasharray:372, 35, 490, 0;stroke-dashoffset:0;stroke-opacity:1" transform="translate(324.29 220.008)" fill="none" stroke="#d1d5db " stroke-width="15" stroke-linecap="round" stroke-linejoin="round" stroke-miterlimit="10" stroke-dasharray="372, 35, 490, 0" stroke-dashoffset="0" stroke-opacity="" data-original="#d1d5db "></path><path d="M0 0c0 31.432 19.035 58.412 46.203 70.061v136.177a5 5 0 0 1-5 5H-8.284v-25.751a9 9 0 0 0-9-9h-178.215c-4.97 0-9 4.031-9 9v25.751h-49.486a5 5 0 0 1-5-5v-383.746a5 5 0 0 1 5-5H41.203a5 5 0 0 1 5 5v107.446C19.035-58.413 0-31.433 0 0Z" style="stroke-width:15;stroke-linecap:round;stroke-linejoin:round;stroke-miterlimit:10;stroke-dasharray:none;stroke-opacity:1" transform="translate(324.29 220.008)" fill="none" stroke="#d1d5db " stroke-width="15" stroke-linecap="round" stroke-linejoin="round" stroke-miterlimit="10" stroke-dasharray="none" stroke-opacity="" data-original="#d1d5db "></path><path d="M0 0c42.085 0 76.203-34.117 76.203-76.203 0-42.085-34.118-76.202-76.203-76.202s-76.203 34.117-76.203 76.202C-76.203-34.117-42.085 0 0 0Z" style="stroke-width:15;stroke-linecap:round;stroke-linejoin:round;stroke-miterlimit:10;stroke-dasharray:45, 35, 800, 0;stroke-dashoffset:0;stroke-opacity:1" transform="translate(400.493 296.21)" fill="none" stroke="#d1d5db " stroke-width="15" stroke-linecap="round" stroke-linejoin="round" stroke-miterlimit="10" stroke-dasharray="45, 35, 800, 0" stroke-dashoffset="0" stroke-opacity="" data-original="#d1d5db "></path></g></g></svg>