<svg xmlns="http://www.w3.org/2000/svg" version="1.1" xmlns:xlink="http://www.w3.org/1999/xlink" width="512" height="512" x="0" y="0" viewBox="0 0 512 512" style="enable-background:new 0 0 512 512" xml:space="preserve" class=""><g><path fill="#fd6930" d="M406.245 512h-300.49C91.531 512 80 500.469 80 486.245V73.755C80 59.531 91.531 48 105.755 48h300.491C420.469 48 432 59.531 432 73.755v412.491C432 500.469 420.469 512 406.245 512z" opacity="1" data-original="#fd6930" class=""></path><path fill="#fd5426" d="M112 97.513v389.658c0 5.712 4.63 10.342 10.342 10.342h172.055a61.811 61.811 0 0 0 43.707-18.104l43.792-43.792A61.811 61.811 0 0 0 400 391.91V97.513z" opacity="1" data-original="#fd5426"></path><path fill="#f2fbff" d="M112 90v380c0 5.523 4.477 10 10 10h172.397c16.393 0 18.219-6.512 29.811-18.104L368 418.104c11.592-11.592 32-27.314 32-43.707V90c0-5.523-4.477-10-10-10H122c-5.523 0-10 4.477-10 10z" opacity="1" data-original="#f2fbff"></path><g fill="#dff6fd"><path d="M160 80v21.151c0 8.534 6.918 15.453 15.453 15.453h161.095c8.534 0 15.453-6.918 15.453-15.453V80zM216.464 174.097l-34.848 34.848-14.081-14.081a9.455 9.455 0 0 0-13.371 0l-7.396 7.396a9.455 9.455 0 0 0 0 13.371l24.82 24.82c5.538 5.538 14.518 5.538 20.056 0l45.586-45.586a9.455 9.455 0 0 0 0-13.371l-7.396-7.396c-3.691-3.693-9.677-3.693-13.37-.001zM216.464 270.097l-34.848 34.848-14.081-14.081a9.455 9.455 0 0 0-13.371 0l-7.396 7.396a9.455 9.455 0 0 0 0 13.371l24.82 24.82c5.538 5.538 14.518 5.538 20.056 0l45.586-45.586a9.455 9.455 0 0 0 0-13.371l-7.396-7.396c-3.691-3.693-9.677-3.693-13.37-.001zM216.464 366.097l-34.848 34.848-14.081-14.081a9.455 9.455 0 0 0-13.371 0l-7.396 7.396a9.455 9.455 0 0 0 0 13.371l24.82 24.82c5.538 5.538 14.518 5.538 20.056 0l45.586-45.586a9.455 9.455 0 0 0 0-13.371l-7.396-7.396c-3.691-3.693-9.677-3.693-13.37-.001z" fill="#dff6fd" opacity="1" data-original="#dff6fd"></path><path d="M358.793 80v252.852c0 25.706-20.839 46.545-46.545 46.545-18.477 0-33.455 14.978-33.455 33.455 0 25.706-20.839 46.545-46.545 46.545H112V470c0 5.523 4.477 10 10 10h172.397c16.393 0 18.219-6.512 29.811-18.104L368 418.104c11.592-11.592 32-27.314 32-43.707V90c0-5.523-4.477-10-10-10z" fill="#dff6fd" opacity="1" data-original="#dff6fd"></path></g><path fill="#0055a3" d="M336 215.5h-64c-4.143 0-7.5-3.358-7.5-7.5s3.357-7.5 7.5-7.5h64c4.143 0 7.5 3.358 7.5 7.5s-3.357 7.5-7.5 7.5zm7.5 88.5a7.5 7.5 0 0 0-7.5-7.5h-64c-4.143 0-7.5 3.358-7.5 7.5s3.357 7.5 7.5 7.5h64a7.5 7.5 0 0 0 7.5-7.5zm0 96a7.5 7.5 0 0 0-7.5-7.5h-64c-4.143 0-7.5 3.358-7.5 7.5s3.357 7.5 7.5 7.5h64a7.5 7.5 0 0 0 7.5-7.5zm32-224a7.5 7.5 0 0 0-7.5-7.5h-96c-4.143 0-7.5 3.358-7.5 7.5s3.357 7.5 7.5 7.5h96a7.5 7.5 0 0 0 7.5-7.5zm0 96a7.5 7.5 0 0 0-7.5-7.5h-96c-4.143 0-7.5 3.358-7.5 7.5s3.357 7.5 7.5 7.5h96a7.5 7.5 0 0 0 7.5-7.5zm0 96a7.5 7.5 0 0 0-7.5-7.5h-96c-4.143 0-7.5 3.358-7.5 7.5s3.357 7.5 7.5 7.5h96a7.5 7.5 0 0 0 7.5-7.5z" opacity="1" data-original="#0055a3"></path><path fill="#004281" d="M375.5 272a7.5 7.5 0 0 0-7.5-7.5h-9.207v15H368a7.5 7.5 0 0 0 7.5-7.5zM336 392.5h-50.307a33.303 33.303 0 0 0-6.474 15H336c4.143 0 7.5-3.358 7.5-7.5s-3.357-7.5-7.5-7.5zM375.5 368a7.5 7.5 0 0 0-7.5-7.5h-18.306a46.707 46.707 0 0 1-18.775 15H368a7.5 7.5 0 0 0 7.5-7.5zM368 168.5h-9.207v15H368c4.143 0 7.5-3.358 7.5-7.5s-3.357-7.5-7.5-7.5z" opacity="1" data-original="#004281"></path><path fill="#05e39c" d="m216.464 153.494-31.312 31.312a5 5 0 0 1-7.071 0l-10.546-10.546a9.455 9.455 0 0 0-13.371 0l-7.396 7.396a9.455 9.455 0 0 0 0 13.371l24.82 24.82c5.538 5.538 14.518 5.538 20.056 0l45.586-45.586a9.455 9.455 0 0 0 0-13.371l-7.396-7.396c-3.691-3.692-9.677-3.692-13.37 0zM216.464 249.494l-31.312 31.312a5 5 0 0 1-7.071 0l-10.546-10.546a9.455 9.455 0 0 0-13.371 0l-7.396 7.396a9.455 9.455 0 0 0 0 13.371l24.82 24.819c5.538 5.538 14.518 5.538 20.056 0l45.586-45.586a9.455 9.455 0 0 0 0-13.371l-7.396-7.396c-3.691-3.691-9.677-3.691-13.37.001zM216.464 345.494l-31.312 31.312a5 5 0 0 1-7.071 0l-10.546-10.546a9.455 9.455 0 0 0-13.371 0l-7.396 7.396a9.455 9.455 0 0 0 0 13.371l24.82 24.819c5.538 5.538 14.518 5.538 20.056 0l45.586-45.586a9.455 9.455 0 0 0 0-13.371l-7.396-7.396c-3.691-3.691-9.677-3.691-13.37.001z" opacity="1" data-original="#05e39c"></path><path fill="#0055a3" d="M288 32c0-17.673-14.327-32-32-32s-32 14.327-32 32h-54c-5.523 0-10 4.477-10 10v38.547C160 89.082 166.918 96 175.453 96h161.095C345.082 96 352 89.082 352 80.547V42c0-5.523-4.477-10-10-10z" opacity="1" data-original="#0055a3"></path><path fill="#004281" d="M310.793 32v6.35c0 20.46-16.586 37.047-37.047 37.047H160v5.151C160 89.082 166.918 96 175.453 96h161.095C345.082 96 352 89.082 352 80.547V42c0-5.523-4.477-10-10-10z" opacity="1" data-original="#004281"></path><path fill="#ffffff" d="M320 410c0-5.523 4.477-10 10-10h33.944C383.857 400 400 383.857 400 363.944v10.453a61.811 61.811 0 0 1-18.104 43.707l-43.792 43.792A61.811 61.811 0 0 1 294.397 480h-10.453C303.857 480 320 463.857 320 443.944z" opacity="1" data-original="#ffffff"></path><path fill="#004281" d="M320 71.5H192c-4.143 0-7.5-3.358-7.5-7.5s3.357-7.5 7.5-7.5h128c4.143 0 7.5 3.358 7.5 7.5s-3.357 7.5-7.5 7.5z" opacity="1" data-original="#004281"></path><path fill="#00366d" d="M320 56.5h-13.951a37.213 37.213 0 0 1-15.747 15H320c4.143 0 7.5-3.358 7.5-7.5s-3.357-7.5-7.5-7.5z" opacity="1" data-original="#00366d"></path><circle cx="256" cy="32" r="7.5" fill="#004281" opacity="1" data-original="#004281"></circle></g></svg>